<svg version="1.1" xmlns="http://www.w3.org/2000/svg" xmlns:xlink="http://www.w3.org/1999/xlink" width="681" height="413" viewBox="0,0,681,413"><defs><radialGradient cx="64.5" cy="132" r="40.21301" gradientUnits="userSpaceOnUse" id="color-1"><stop offset="0" stop-color="#ffaeae"/><stop offset="1" stop-color="#ff0000"/></radialGradient><radialGradient cx="544.5" cy="129" r="40.21301" gradientUnits="userSpaceOnUse" id="color-2"><stop offset="0" stop-color="#add9ff"/><stop offset="1" stop-color="#00a2ff"/></radialGradient><radialGradient cx="99.5" cy="261" r="40.21301" gradientUnits="userSpaceOnUse" id="color-3"><stop offset="0" stop-color="#ffaeae"/><stop offset="1" stop-color="#ff0000"/></radialGradient><radialGradient cx="565.5" cy="243" r="40.21301" gradientUnits="userSpaceOnUse" id="color-4"><stop offset="0" stop-color="#add9ff"/><stop offset="1" stop-color="#00a2ff"/></radialGradient></defs><g transform="translate(10.5,10)"><g data-paper-data="{&quot;isPaintingLayer&quot;:true}" fill-rule="nonzero" stroke-linejoin="miter" stroke-miterlimit="10" stroke-dasharray="" stroke-dashoffset="0" style="mix-blend-mode: normal"><path d="M-10.5,403v-413h681v413z" fill="#ecbbff" stroke="none" stroke-width="0" stroke-linecap="butt"/><text transform="translate(229.84631,38.76875) scale(0.76002,0.76002)" font-size="40" xml:space="preserve" fill="#000000" fill-rule="nonzero" stroke="none" stroke-width="1" stroke-linecap="butt" stroke-linejoin="miter" stroke-miterlimit="10" stroke-dasharray="" stroke-dashoffset="0" font-family="Handwriting" font-weight="normal" text-anchor="start" style="mix-blend-mode: normal"><tspan x="0" dy="0">Sink or Float</tspan></text><text transform="translate(153.13013,65.76875) scale(0.5,0.5)" font-size="40" xml:space="preserve" fill="#000000" fill-rule="nonzero" stroke="none" stroke-width="1" stroke-linecap="butt" stroke-linejoin="miter" stroke-miterlimit="10" stroke-dasharray="" stroke-dashoffset="0" font-family="Handwriting" font-weight="normal" text-anchor="start" style="mix-blend-mode: normal"><tspan x="0" dy="0">Buoyancy due to Changing Density</tspan></text><text transform="translate(31.16007,95.76875) scale(0.5,0.5)" font-size="40" xml:space="preserve" fill="#000000" fill-rule="nonzero" stroke="none" stroke-width="1" stroke-linecap="butt" stroke-linejoin="miter" stroke-miterlimit="10" stroke-dasharray="" stroke-dashoffset="0" font-family="Handwriting" font-weight="normal" text-anchor="start" style="mix-blend-mode: normal"><tspan x="0" dy="0">Things that float</tspan></text><text transform="translate(453.66007,95.76875) scale(0.5,0.5)" font-size="40" xml:space="preserve" fill="#000000" fill-rule="nonzero" stroke="none" stroke-width="1" stroke-linecap="butt" stroke-linejoin="miter" stroke-miterlimit="10" stroke-dasharray="" stroke-dashoffset="0" font-family="Handwriting" font-weight="normal" text-anchor="start" style="mix-blend-mode: normal"><tspan x="0" dy="0">Things that sink</tspan></text><path d="M81.07984,116.34997c16.77706,1.50793 29.15513,16.33084 27.64719,33.1079c-1.50793,16.77705 -16.33084,29.15512 -33.10789,27.64719c-7.73485,-0.69521 -29.0255,-8.89668 -28.00534,-32.8401c0.47125,-11.06037 -18.22284,16.57371 -19.14564,10.17043c-0.37136,-2.57686 1.79582,-20.2535 1.85334,-23.35109c0.05352,-2.88196 15.93627,15.3644 17.14458,12.51415c5.03083,-11.86712 20.08585,-28.46438 33.61377,-27.24848z" fill="url(#color-1)" stroke="#000000" stroke-width="5" stroke-linecap="butt"/><text transform="translate(61.5,151) scale(0.5,0.5)" font-size="40" xml:space="preserve" fill="#000000" fill-rule="nonzero" stroke="none" stroke-width="1" stroke-linecap="butt" stroke-linejoin="miter" stroke-miterlimit="10" stroke-dasharray="" stroke-dashoffset="0" font-family="Sans Serif" font-weight="normal" text-anchor="start" style="mix-blend-mode: normal"><tspan x="0" dy="0">AIR</tspan></text><path d="M503.5,290.34814c0,-2.59379 7.09279,-68.47376 16.72905,-68.36189c9.63626,0.11186 14.71002,5.10476 14.71002,5.10476c0,0 8.38712,-4.6252 17.30592,-4.69962c8.9188,-0.07442 15.28689,4.45653 15.28689,4.45653c0,0 6.79804,-4.40937 15.86375,-4.45653c9.06571,-0.04717 17.06212,65.51351 15.28689,67.95675" fill-opacity="0.34902" fill="#009cff" stroke="#000000" stroke-width="0.5" stroke-linecap="round"/><text transform="translate(119.5,116.45386) scale(0.37722,0.36866)" font-size="40" xml:space="preserve" fill="#000000" fill-rule="nonzero" stroke="none" stroke-width="1" stroke-linecap="butt" stroke-linejoin="miter" stroke-miterlimit="10" stroke-dasharray="" stroke-dashoffset="0" font-family="Handwriting" font-weight="normal" text-anchor="start" style="mix-blend-mode: normal"><tspan x="0" dy="0">A balloon filled with air has</tspan><tspan x="0" dy="46.15px">an increased volume, </tspan><tspan x="0" dy="46.15px">which decreases density, </tspan><tspan x="0" dy="46.15px">increasing buoyancy and </tspan><tspan x="0" dy="46.15px">making it float.</tspan></text><path d="M37.5,187.34814c0,-7.37448 5.82928,-31.67967 13.74896,-31.36163c7.91967,0.31804 12.08961,14.5135 12.08961,14.5135c0,0 6.89305,-13.15004 14.22306,-13.36163c7.33002,-0.21159 12.56371,12.67051 12.56371,12.67051c0,0 5.58705,-12.53642 13.03781,-12.67051c7.45076,-0.13409 14.02269,23.26334 12.5637,30.20977" fill-opacity="0.34902" fill="#009cff" stroke="#000000" stroke-width="0.5" stroke-linecap="round"/><path d="M561.07984,113.34997c16.77706,1.50793 29.15513,16.33084 27.6472,33.1079c-1.50793,16.77705 -16.33084,29.15512 -33.10789,27.64719c-7.73485,-0.69521 -29.0255,-8.89668 -28.00535,-32.8401c0.47125,-11.06037 -18.22284,16.57371 -19.14563,10.17043c-0.37136,-2.57686 1.79581,-20.2535 1.85333,-23.35109c0.05352,-2.88196 15.93627,15.3644 17.14457,12.51415c5.03083,-11.86712 20.08586,-28.46438 33.61377,-27.24848z" fill="url(#color-2)" stroke="#000000" stroke-width="5" stroke-linecap="butt"/><text transform="translate(538.5,148) scale(0.33787,0.5)" font-size="40" xml:space="preserve" fill="#000000" fill-rule="nonzero" stroke="none" stroke-width="1" stroke-linecap="butt" stroke-linejoin="miter" stroke-miterlimit="10" stroke-dasharray="" stroke-dashoffset="0" font-family="Sans Serif" font-weight="normal" text-anchor="start" style="mix-blend-mode: normal"><tspan x="0" dy="0">WATER</tspan></text><path d="M499.5,175.34814c0,-2.59379 7.09278,-68.47375 16.72905,-68.36189c9.63626,0.11186 14.71003,5.10476 14.71003,5.10476c0,0 8.38712,-4.6252 17.30591,-4.69962c8.9188,-0.07442 15.28689,4.45654 15.28689,4.45654c0,0 6.79804,-4.40938 15.86376,-4.45654c9.06571,-0.04716 17.06211,65.51352 15.28689,67.95675" fill-opacity="0.34902" fill="#009cff" stroke="#000000" stroke-width="0.5" stroke-linecap="round"/><text transform="translate(305.5,116.9991) scale(0.38441,0.38441)" font-size="40" xml:space="preserve" fill="#000000" fill-rule="nonzero" stroke="none" stroke-width="1" stroke-linecap="butt" stroke-linejoin="miter" stroke-miterlimit="10" stroke-dasharray="" stroke-dashoffset="0" font-family="Handwriting" font-weight="normal" text-anchor="start" style="mix-blend-mode: normal"><tspan x="0" dy="0">A balloon filled with water has</tspan><tspan x="0" dy="46.15px">an increased mass, </tspan><tspan x="0" dy="46.15px">which increases density, </tspan><tspan x="0" dy="46.15px">decreasing buoyancy and </tspan><tspan x="0" dy="46.15px">making it sink.</tspan></text><path d="M82.61379,273.26495c0.47125,-11.06037 -18.22284,16.57371 -19.14564,10.17043c-0.37136,-2.57686 1.79582,-20.2535 1.85333,-23.35109c0.05352,-2.88196 15.93627,15.3644 17.14458,12.51415c5.03083,-11.86712 -0.87243,24.60993 0.14773,0.6665z" fill="url(#color-3)" stroke="#000000" stroke-width="5" stroke-linecap="butt"/><path d="M32.5,300.34813c0,-7.37448 5.82928,-31.67967 13.74896,-31.36163c7.91967,0.31804 12.08961,14.51349 12.08961,14.51349c0,0 6.89305,-13.15004 14.22306,-13.36163c7.33001,-0.21159 12.56371,12.67051 12.56371,12.67051c0,0 5.58705,-12.53642 13.03781,-12.67051c7.45076,-0.13409 14.02269,23.26334 12.5637,30.20977" fill-opacity="0.34902" fill="#009cff" stroke="#000000" stroke-width="0.5" stroke-linecap="round"/><text transform="translate(112.5,231.15386) scale(0.36835,0.35999)" font-size="40" xml:space="preserve" fill="#000000" fill-rule="nonzero" stroke="none" stroke-width="1" stroke-linecap="butt" stroke-linejoin="miter" stroke-miterlimit="10" stroke-dasharray="" stroke-dashoffset="0" font-family="Handwriting" font-weight="normal" text-anchor="start" style="mix-blend-mode: normal"><tspan x="0" dy="0">A balloon which has been</tspan><tspan x="0" dy="46.15px">cut apart has a decreased mass,</tspan><tspan x="0" dy="46.15px">which decreases density,</tspan><tspan x="0" dy="46.15px">increasing buoyancy and making</tspan><tspan x="0" dy="46.15px"> it float</tspan></text><path d="M564.07984,244.34996c6.64513,0.59727 8.25626,5.63669 10.03477,6.50095c2.71172,1.31775 3.16305,-0.44695 1.61243,9.60694c-1.50793,9.77706 -9.33084,14.15512 -17.10789,12.6472c-3.73485,-0.69521 -11.02551,-5.89668 -10.00535,-17.84011c0.47125,-10.06037 -18.22284,16.57371 -19.14563,10.17043c-0.37136,-2.57686 1.79581,-20.2535 1.85334,-23.35109c0.05351,-2.88196 15.93627,15.3644 17.14457,12.51415c5.03083,-11.86712 8.08586,-9.46438 15.61377,-10.24848z" fill="url(#color-4)" stroke="#000000" stroke-width="5" stroke-linecap="butt"/><text transform="translate(310.5,230.73928) scale(0.40348,0.40348)" font-size="40" xml:space="preserve" fill="#000000" fill-rule="nonzero" stroke="none" stroke-width="1" stroke-linecap="butt" stroke-linejoin="miter" stroke-miterlimit="10" stroke-dasharray="" stroke-dashoffset="0" font-family="Handwriting" font-weight="normal" text-anchor="start" style="mix-blend-mode: normal"><tspan x="0" dy="0">A deflated balloon has a</tspan><tspan x="0" dy="46.15px">decreased volume, increasing</tspan><tspan x="0" dy="46.15px">density, decreasing buoyancy,</tspan><tspan x="0" dy="46.15px">making it sink.</tspan></text><text transform="translate(210,335.76875) scale(0.5,0.5)" font-size="40" xml:space="preserve" fill="#000000" fill-rule="nonzero" stroke="none" stroke-width="1" stroke-linecap="butt" stroke-linejoin="miter" stroke-miterlimit="10" stroke-dasharray="" stroke-dashoffset="0" font-family="Serif" font-weight="normal" text-anchor="start" style="mix-blend-mode: normal"><tspan x="0" dy="0">Press [SPACE] to continue.</tspan></text></g></g></svg>