<svg version="1.1" xmlns="http://www.w3.org/2000/svg" xmlns:xlink="http://www.w3.org/1999/xlink" width="13.94414" height="36.8637" viewBox="0,0,13.94414,36.8637"><defs><radialGradient cx="318.95477" cy="181.32314" r="35.2121" gradientUnits="userSpaceOnUse" id="color-1"><stop offset="0" stop-color="#0033cc"/><stop offset="1" stop-color="#00ffff"/></radialGradient><radialGradient cx="321.90465" cy="165.53401" r="14.22698" gradientUnits="userSpaceOnUse" id="color-2"><stop offset="0" stop-color="#00ffff"/><stop offset="1" stop-color="#0033cc"/></radialGradient></defs><g transform="translate(-312.88593,-161.70866)"><g data-paper-data="{&quot;isPaintingLayer&quot;:true}" fill-rule="nonzero" stroke-linejoin="miter" stroke-miterlimit="10" stroke-dasharray="" stroke-dashoffset="0" style="mix-blend-mode: normal"><g><g fill="url(#color-1)" stroke="none" stroke-width="1" stroke-linecap="butt"><g><path d="M320.30667,175.3876c-0.8236,0.43338 0.7576,1.84711 -0.0968,2.29721c-1.0926,0.57528 -2.2616,1.18112 -2.9201,1.89356c-0.8188,0.88472 -0.0198,1.1245 -0.6988,-0.00721c0.3876,0.64559 1.1292,1.29384 2.4692,1.62718c2.6218,0.6523 5.1437,0.21809 5.4564,-1.20616c-0.035,0.75206 -0.069,1.50366 -0.103,2.25622c-0.0273,-0.53388 0.287,-1.5509 -1.2947,-0.8362c-0.8016,0.36188 -1.6147,0.73699 -2.0703,1.22096c-0.8884,0.94345 -1.1827,0.76198 -0.3339,1.75736c0.3982,0.46775 0.8043,0.96045 1.5016,1.35693c0.0361,0.021 2.2629,1.06826 2.2794,0.8464c0.0371,-0.4956 0.1893,-0.92351 0.7269,-1.35716c-0.0326,0.76589 -0.0652,1.53132 -0.0978,2.29721c-7.2851,2.41416 -4.3895,6.00907 0.9612,8.74126c0.8311,0.42437 -0.8936,1.89062 -0.0977,2.29721c-6.131,-3.13083 -9.5269,-10.43245 -0.7657,-13.33568c-0.7406,0.24571 0.4201,1.87946 -0.0978,2.29721c-0.5645,0.45543 -0.6728,0.83872 -0.7124,1.36874c-0.0012,0.05239 -0.0075,0.10519 -0.0197,0.15702c-4.9747,-1.72138 -4.7328,-4.63224 -4.236,-7.20847c0.1746,-0.90756 4.237,-4.28231 4.3454,-2.17677c0.0436,0.85577 0.0279,1.71922 -0.0755,2.57407c-0.3055,2.49986 -7.2926,1.60103 -7.9344,-0.38016c-0.7884,-2.43888 0.2439,-4.60218 3.8145,-6.48072z"/></g></g><path d="M325.83007,185.70962c0,0 0.109,1.38593 -0.1,2.06786c-0.096,0.31248 -0.8,0.8731 -0.8,0.8731" fill="none" stroke="#007fdf" stroke-width="2" stroke-linecap="round"/></g><path d="M325.92677,169.68786c-0.61072,3.94562 -5.92172,6.78306 -7.52535,6.73384c-1.74875,-0.0536 -6.06738,-4.36884 -5.45685,-8.31476c0.6109,-3.94563 4.01214,-6.79054 7.59695,-6.35407c3.58479,0.43647 5.99595,3.98935 5.38525,7.93499z" fill="url(#color-2)" stroke="none" stroke-width="1" stroke-linecap="butt"/></g></g></svg>