<svg version="1.1" xmlns="http://www.w3.org/2000/svg" xmlns:xlink="http://www.w3.org/1999/xlink" width="114.07602" height="137" viewBox="0,0,114.07602,137"><g transform="translate(-262.96199,-111.5)"><g data-paper-data="{&quot;isPaintingLayer&quot;:true}" fill="none" fill-rule="nonzero" stroke-linejoin="miter" stroke-miterlimit="10" stroke-dasharray="" stroke-dashoffset="0" style="mix-blend-mode: normal"><path d="M314.76024,169.19298v66.80702" stroke="#747474" stroke-width="25" stroke-linecap="round"/><path d="M323.27486,169.19298v66.80702" stroke="#747474" stroke-width="25" stroke-linecap="round"/><path d="M320,169v78" stroke="#000000" stroke-width="2.5" stroke-linecap="round"/><path d="M275.46199,148.88889c0,-13.74576 11.14313,-24.88889 24.88888,-24.88889c13.74575,0 24.88889,11.14314 24.88889,24.88889c0,13.74576 -11.14314,24.88889 -24.88889,24.88889c-13.74575,0 -24.88888,-11.14313 -24.88888,-24.88889z" stroke="#ff0000" stroke-width="25" stroke-linecap="butt"/><path d="M314.76024,148.88889c0,-13.74576 11.14314,-24.88889 24.88889,-24.88889c13.74575,0 24.88888,11.14314 24.88888,24.88889c0,13.74576 -11.14313,24.88889 -24.88888,24.88889c-13.74575,0 -24.88889,-11.14313 -24.88889,-24.88889z" stroke="#ff0000" stroke-width="25" stroke-linecap="butt"/></g></g></svg>